# xmcd
#
# Track frame offsets: 
#        150
#        20054
#        32952
#        45334
#        62229
#        76032
#        92301
#        103845
#        121829
#        141805
#        152056
#        175474
#
# Disc length: 2529 seconds
#
# Revision: 0
# Processed by: cddbd v1.5.2PL0 Copyright (c) Steve Scherf et al.
# Submitted via: ExactAudioCopy v0.99pb4
#
DISCID=9409df0c
DTITLE=Movie Star Junkies - Melville
DYEAR=2008
DGENRE=Blues - Punk
TTITLE0=The Curse
TTITLE1=Little Boy
TTITLE2=Lucky Horse
TTITLE3=Run Away From Me
TTITLE4=Dead Love Rag
TTITLE5=Melville
TTITLE6=Eleanor
TTITLE7=Your Miserable Life
TTITLE8=This Is Not A Light
TTITLE9=I'd Rather Not
TTITLE10=Tongues Of Fire
TTITLE11=Melville (brass version)
EXTD=
EXTT0=
EXTT1=
EXTT2=
EXTT3=
EXTT4=
EXTT5=
EXTT6=
EXTT7=
EXTT8=
EXTT9=
EXTT10=
EXTT11=
PLAYORDER=
